<svg xmlns="http://www.w3.org/2000/svg" viewBox="0 0 600 450" width="100%" height="100%">
  <defs>
    <linearGradient id="galTelh" x1="0%" y1="0%" x2="100%" y2="100%">
      <stop offset="0%" stop-color="#0b1a30" />
      <stop offset="100%" stop-color="#1f2d3d" />
    </linearGradient>
  </defs>
  <rect width="600" height="450" rx="12" fill="url(#galTelh)" />
  <g transform="translate(60, 40)">
    <polygon points="240,30 40,160 440,160" fill="#ea580c" />
    <g stroke="#ffedd5" stroke-width="2" opacity="0.6">
      <line x1="240" y1="45" x2="270" y2="160" />
      <line x1="240" y1="45" x2="310" y2="160" />
      <line x1="240" y1="45" x2="355" y2="160" />
      <line x1="240" y1="45" x2="400" y2="160" />
      <line x1="240" y1="45" x2="210" y2="160" />
      <line x1="240" y1="45" x2="170" y2="160" />
      <line x1="240" y1="45" x2="125" y2="160" />
      <line x1="240" y1="45" x2="80" y2="160" />
    </g>
    <rect x="60" y="160" width="360" height="120" fill="#334155" />
    <rect x="100" y="190" width="50" height="60" rx="3" fill="#93c5fd" />
    <rect x="330" y="190" width="50" height="60" rx="3" fill="#93c5fd" />
  </g>
  <rect x="0" y="360" width="600" height="90" fill="#071222" opacity="0.95" />
  <rect x="30" y="378" width="110" height="24" rx="12" fill="#c2410c" />
  <text x="85" y="394" font-family="'Plus Jakarta Sans', Arial, sans-serif" font-weight="800" font-size="11" fill="#ffffff" text-anchor="middle">TELHADOS</text>
  <text x="155" y="395" font-family="'Plus Jakarta Sans', Arial, sans-serif" font-weight="800" font-size="16" fill="#ffffff">Restauração e Lavagem de Telhados</text>
  <text x="30" y="430" font-family="'Inter', Arial, sans-serif" font-weight="500" font-size="12" fill="#94a3b8">Substituição de telhas quebradas, alinhamento, calhas e aplicação de resina</text>
</svg>
